# Blender 3.3.2
# www.blender.org
o cave_rock_1_lp
v -2.230913 0.765535 0.139195
v -2.029098 1.444638 0.133514
v -0.951339 0.007809 0.653916
v -0.976174 -0.038949 -0.659571
v -1.035076 0.704250 0.140938
v 0.988616 -0.037579 0.662153
v -1.898693 4.860340 3.792269
v -1.879808 5.623032 3.399043
v -1.909466 4.375257 2.283273
v -1.864666 5.166574 2.004820
v -1.969763 4.539474 0.998142
v -1.814514 5.211429 0.531070
v -1.570966 2.490636 0.531308
v -1.918679 3.574020 0.137709
v -2.128500 4.076831 -0.052885
v -1.964612 5.196465 0.092836
v -1.294497 4.716715 3.613768
v -0.380962 5.793800 3.428241
v -1.173692 4.054639 2.517609
v -1.135240 4.459560 0.974103
v -1.133053 5.381062 0.384015
v -1.074728 5.307407 1.602483
v -0.967345 5.778071 1.384322
v -1.088580 1.512102 0.418117
v -0.929390 2.751549 0.510912
v -1.277402 3.741454 0.844253
v -1.670068 3.951578 0.537824
v -0.556367 3.796978 0.820135
v -0.817749 5.936144 -0.065222
v -0.277500 4.701748 3.752124
v 0.921739 5.790500 3.455152
v -0.286684 4.336417 2.467748
v -0.034770 4.984902 2.525794
v -0.435042 5.204754 1.632141
v -0.341200 5.918409 1.386510
v -0.357126 6.316714 1.983428
v -0.285452 4.395856 1.225744
v 0.453766 4.323599 1.285138
v -0.831842 5.625569 0.801483
v 0.009310 2.574398 0.687522
v -0.487354 3.038892 0.365235
v -0.129633 3.013297 0.414559
v 0.391213 3.606037 0.630622
v -2.193774 0.737847 -1.193934
v -1.023488 0.687652 -0.709985
v -0.335727 0.770679 -1.163830
v -2.124012 2.872276 -1.162090
v -1.190485 2.923027 -1.271610
v -2.006791 4.026523 -1.555735
v -1.843769 3.411526 -1.891047
v -1.003101 4.795468 -0.583034
v -0.604400 3.446136 -1.479371
v -0.535452 2.737148 -1.349459
v -0.085814 1.605170 -0.794356
v -0.397223 2.795678 -1.558090
v -0.400382 5.026155 -0.660125
v 1.032148 0.437458 0.137751
v 0.975836 1.741124 0.638956
v 2.128011 0.467405 0.128174
v 0.870763 4.660918 3.742807
v 0.246730 4.413170 2.174562
v 0.792209 4.981808 2.543106
v 0.708818 4.293909 1.426960
v 0.481426 3.243396 0.824016
v 1.096603 5.707184 0.505773
v 0.970834 5.103187 3.581738
v 1.435478 4.517194 2.228230
v 0.918253 6.331995 2.016932
v 0.985477 5.828991 2.371865
v 0.898108 4.534976 1.658116
v 1.859486 4.552940 1.735627
v 0.966640 5.584606 1.024091
v 1.908639 5.389630 1.509529
v 1.448116 4.167428 1.391850
v 1.424310 3.219142 0.844459
v 1.060297 4.557506 1.034195
v 1.474313 4.604760 1.013976
v 1.657093 3.628486 0.134568
v 0.960931 5.927275 -0.069108
v 1.854220 5.419679 3.502584
v 1.940551 5.060279 2.689222
v 1.921107 5.782823 2.428286
v 1.912527 4.712615 0.589651
v 2.091412 3.120559 0.858483
v 1.952081 3.640448 -0.369325
v 1.875075 5.520193 0.438371
v -0.043343 0.747415 -0.671883
v 0.218394 0.821386 -1.069749
v 1.021834 0.684999 -0.705830
v 0.987737 -0.030760 -0.659521
v 1.629182 0.789711 -1.043500
v 1.650052 2.559311 -0.777825
v 2.121324 0.912237 -1.111583
v 0.558288 5.027655 -0.652416
v 0.637703 2.225895 -1.093532
v 0.592981 2.941927 -1.590953
v 1.182177 3.054240 -0.546475
v 1.051388 4.587527 -0.541618
v 1.175668 2.659808 -1.007605
v 0.807104 3.682173 -1.081430
v 1.811630 3.210016 -0.543836
v 1.754413 3.805159 -1.079407
vn -0.0010 0.0087 1.0000
vn -0.1569 -0.2010 0.9670
vn -0.1578 -0.1644 0.9737
vn -0.2031 -0.2546 0.9455
vn -0.9943 -0.1053 0.0194
vn -0.9957 -0.0909 0.0200
vn -0.9953 -0.0830 0.0498
vn -0.0322 0.0107 0.9994
vn -0.0039 0.0130 0.9999
vn -0.0070 -0.0476 0.9988
vn -0.9988 0.0435 -0.0234
vn -0.9969 0.0784 -0.0055
vn -0.9995 0.0289 -0.0141
vn -0.9196 0.3336 0.2075
vn -0.6866 0.0342 0.7262
vn -0.7104 0.0116 0.7037
vn -0.7151 -0.0015 0.6991
vn -0.7243 -0.0522 0.6875
vn -0.9984 -0.0027 0.0561
vn -0.9731 0.1936 0.1246
vn -0.9718 0.2175 0.0909
vn -0.0877 -0.9108 0.4034
vn -0.0541 -0.9541 0.2946
vn -0.1235 -0.9345 0.3339
vn -0.3797 -0.8385 0.3907
vn -0.4714 -0.7769 0.4173
vn -0.0951 -0.9736 -0.2075
vn -0.2559 -0.9432 -0.2120
vn -0.0981 -0.9877 -0.1216
vn -0.0479 -0.9806 -0.1901
vn -0.0579 -0.1428 0.9880
vn 0.2260 -0.3744 0.8993
vn 0.1833 -0.4405 0.8788
vn -0.0327 -0.4864 0.8731
vn -0.2105 -0.5029 0.8383
vn -0.0705 -0.6370 0.7676
vn -0.1622 -0.6123 0.7738
vn -0.7714 0.6029 0.2035
vn 0.0221 0.2761 0.9609
vn 0.0710 0.2431 0.9674
vn 0.0328 0.2296 0.9727
vn -0.1036 0.9455 -0.3086
vn -0.1018 0.9462 -0.3072
vn -0.1039 0.9454 -0.3088
vn 0.1009 -0.9769 -0.1886
vn 0.0333 0.8162 -0.5769
vn 0.0062 0.7991 -0.6012
vn 0.0394 0.8255 -0.5630
vn -0.0695 0.0686 0.9952
vn 0.0150 -0.5764 0.8170
vn -0.0427 -0.6140 0.7882
vn -0.9985 0.0174 -0.0525
vn -0.9990 0.0331 -0.0285
vn -0.9858 0.1214 0.1156
vn -0.9964 -0.0839 0.0109
vn -0.9978 -0.0635 0.0211
vn 0.0022 -0.0357 -0.9994
vn 0.0246 -0.0448 -0.9987
vn 0.0428 -0.0664 -0.9969
vn -0.9335 0.2050 0.2943
vn -0.6301 0.0311 0.7759
vn -0.9817 0.0560 -0.1820
vn -0.0344 0.8373 -0.5457
vn -0.0081 0.8549 -0.5188
vn 0.0513 0.7748 -0.6301
vn -0.9136 0.2816 -0.2933
vn 0.1552 -0.6895 -0.7075
vn -0.0271 -0.7986 -0.6012
vn 0.0935 -0.7315 -0.6754
vn 0.1968 0.6273 -0.7535
vn 0.2760 0.5645 -0.7779
vn 0.2674 -0.5993 -0.7546
vn 0.8155 0.0120 -0.5786
vn 0.8393 -0.0107 -0.5435
vn 0.8011 0.0249 -0.5981
vn 0.0756 -0.5440 -0.8357
vn 0.0797 -0.5390 -0.8385
vn 0.0949 -0.5198 -0.8490
vn -0.1423 -0.1335 -0.9808
vn -0.1312 -0.0475 -0.9902
vn -0.1698 -0.1936 -0.9663
vn -0.1092 0.4783 -0.8714
vn 0.0338 0.3340 -0.9420
vn 0.0156 0.3623 -0.9319
vn -0.2821 0.4549 -0.8447
vn 0.0018 -0.9660 -0.2585
vn -0.0222 -0.9701 -0.2417
vn -0.0161 -0.9691 -0.2460
vn -0.6987 -0.5914 0.4027
vn -0.0117 0.9378 0.3469
vn -0.0049 0.9359 0.3524
vn -0.0134 0.9383 0.3455
vn -0.9669 -0.1207 0.2247
vn -0.0582 -0.3133 0.9479
vn -0.3547 -0.4184 0.8361
vn -0.4851 -0.3592 0.7972
vn -0.4831 -0.3779 0.7898
vn -0.0406 -0.3416 0.9390
vn -0.6044 0.2739 0.7481
vn -0.6032 0.2602 0.7539
vn -0.6039 0.2682 0.7506
vn 0.0106 0.9399 0.3412
vn 0.0089 0.9476 0.3195
vn 0.0663 0.9659 0.2502
vn 0.3659 0.1938 0.9103
vn 0.9551 -0.2647 -0.1333
vn 0.0543 -0.9928 0.1067
vn 0.1950 -0.9464 0.2574
vn 0.1807 -0.9533 0.2422
vn 0.9917 0.1283 -0.0061
vn 0.9822 0.1765 0.0641
vn 0.9876 0.1538 0.0309
vn -0.1004 -0.8929 0.4388
vn -0.4188 -0.8298 0.3689
vn -0.2950 -0.8667 0.4023
vn 0.0442 -0.9974 -0.0565
vn 0.0439 -0.9956 -0.0831
vn 0.0229 -0.9983 -0.0527
vn 0.1975 0.9734 -0.1163
vn 0.1156 0.9846 -0.1313
vn 0.1356 0.9850 -0.1069
vn 0.0982 0.9852 0.1406
vn -0.0442 -0.4986 0.8657
vn 0.6985 -0.6984 0.1563
vn 0.0723 0.7279 0.6819
vn 0.0737 0.7263 0.6834
vn 0.1456 0.6418 0.7529
vn 0.2411 0.9642 0.1100
vn 0.5552 -0.2775 0.7841
vn 0.0152 -0.2482 0.9686
vn 0.0044 -0.2509 0.9680
vn -0.0415 -0.2616 0.9643
vn 0.9761 -0.0866 0.1993
vn 0.9854 -0.0139 0.1697
vn 0.9617 -0.1547 0.2262
vn -0.0582 -0.6140 0.7871
vn 0.4997 -0.7816 0.3734
vn 0.9993 0.0329 0.0166
vn 0.9994 0.0163 0.0308
vn 0.9993 0.0308 -0.0207
vn -0.0595 -0.2657 0.9622
vn 0.0864 -0.9920 -0.0917
vn 0.1146 -0.9846 -0.1319
vn 0.9992 0.0333 -0.0222
vn 0.9963 0.0643 -0.0569
vn 0.9999 0.0139 -0.0004
vn 0.9935 0.0828 -0.0777
vn 0.3840 0.8482 0.3648
vn 0.1137 0.8441 0.5240
vn 0.2207 0.8557 0.4680
vn 0.4740 0.8289 0.2972
vn 0.9996 0.0246 -0.0126
vn 0.9969 0.0575 -0.0534
vn -0.0212 -0.0440 -0.9988
vn 0.0810 -0.9477 -0.3087
vn 0.0194 -0.9608 -0.2767
vn -0.0094 -0.9557 -0.2942
vn 0.0049 -0.5006 -0.8657
vn 0.1356 0.2723 -0.9526
vn 0.0146 0.2023 -0.9792
vn -0.0306 0.1901 -0.9813
vn 0.5645 0.3437 -0.7505
vn 0.2232 0.4306 -0.8745
vn 0.4831 0.3379 -0.8078
vn 0.1399 0.4954 -0.8573
vn -0.0853 0.5175 -0.8514
vn 0.9633 -0.1100 -0.2450
vn 0.5773 0.3430 -0.7410
vn 0.0876 0.6254 -0.7754
vn 0.1147 0.6697 -0.7337
vn 0.0216 0.5794 -0.8147
vn 0.3984 -0.1770 -0.9000
vn 0.3192 -0.1345 -0.9381
vn 0.2774 -0.0926 -0.9563
vn 0.9697 0.0035 -0.2441
vn -0.0130 -0.9997 0.0203
vn -0.0062 -0.9999 0.0103
vn -0.0235 -0.9991 0.0360
vn -0.9997 0.0164 -0.0162
vn -0.1731 -0.6604 0.7307
vn -0.9216 -0.2844 0.2644
vn -0.0695 0.4585 0.8860
vn -0.0201 0.3914 0.9200
vn -0.0020 0.3140 0.9494
vn -0.1062 0.9447 -0.3104
vn 0.1122 0.8485 0.5172
vn -0.2177 0.9747 0.0501
vn -0.1634 0.9863 0.0245
vn -0.1816 0.9827 0.0374
vn -0.2282 0.9716 0.0631
vn -0.9666 0.2489 0.0613
vn -0.7249 0.0416 0.6875
vn 0.0653 -0.0828 0.9944
vn -0.0820 0.5368 0.8397
vn -0.2827 0.7427 0.6070
vn -0.2296 0.5523 0.8014
vn -0.6298 -0.0462 0.7754
vn 0.0519 -0.2538 0.9659
vn -0.0414 0.7985 0.6006
vn -0.2080 0.9139 -0.3487
vn -0.3061 0.9012 -0.3070
vn -0.2297 0.9272 -0.2960
vn 0.1462 -0.8933 0.4250
vn 0.2852 -0.8062 0.5184
vn -0.9968 0.0771 -0.0230
vn -0.9963 0.0800 -0.0324
vn -0.9977 0.0674 0.0079
vn 0.9295 -0.3655 0.0491
vn 0.9247 -0.3680 0.0981
vn 0.9306 -0.3645 0.0332
vn 0.9325 -0.3608 -0.0163
vn -0.9909 0.0986 -0.0922
vn -0.0202 0.9402 0.3400
vn 0.3001 -0.9528 -0.0453
vn -0.1815 -0.4939 0.8504
vn 0.0199 0.8715 -0.4900
vn -0.0377 0.3730 0.9271
vn -0.1011 0.4373 0.8936
vn -0.0380 0.3733 0.9269
vn 0.0082 0.3245 0.9459
vn -0.0820 0.5075 0.8577
vn -0.0512 -0.9985 0.0193
vn -0.0341 -0.9992 -0.0216
vn -0.0509 -0.9985 0.0191
vn -0.0034 -0.9974 -0.0725
vn -0.0622 -0.0435 -0.9971
vn -0.0420 -0.0349 -0.9985
vn 0.0159 0.0144 -0.9998
vn 0.0514 -0.9933 -0.1037
vn 0.0639 -0.9943 -0.0850
vn 0.8586 -0.0306 -0.5117
vn -0.9234 -0.0365 -0.3820
vn 0.2574 0.5143 -0.8181
vn -0.7951 -0.1833 -0.5782
vn -0.7419 -0.3295 -0.5840
vn -0.7083 -0.4001 -0.5815
vn -0.6316 -0.5289 -0.5669
vn -0.0484 0.1048 -0.9933
vn 0.0042 -1.0000 -0.0052
vn 0.9986 -0.0427 0.0327
vn 0.9959 0.0083 0.0902
vn 0.9981 -0.0392 0.0473
vn -0.0364 -0.9721 -0.2317
vn 0.6281 -0.7460 0.2213
vn 0.0420 -0.8899 0.4543
vn -0.0197 -0.5304 0.8475
vn -0.1030 -0.9918 0.0759
vn -0.6026 0.2536 0.7567
vn 0.0054 0.9343 0.3564
vn 0.0226 0.1826 0.9829
vn 0.3400 -0.8463 0.4101
vn -0.2319 0.9716 0.0462
vn 0.2134 0.9562 0.2005
vn 0.3359 0.8857 0.3203
vn 0.9935 0.1090 -0.0337
vn 0.1131 -0.9936 -0.0065
vn -0.0729 0.8571 0.5100
vn 0.9885 0.0604 0.1384
vn 0.0997 0.6776 -0.7286
vn 0.9951 0.0560 0.0809
vn 0.9812 -0.1919 0.0187
vn 0.7785 -0.3899 0.4919
vn 0.7108 -0.4080 0.5730
vn 0.6839 -0.4135 0.6011
vn -0.8189 -0.1207 -0.5611
vn -0.0544 -0.9685 -0.2429
vn -0.0641 -0.9727 -0.2230
vn -0.0355 -0.0628 -0.9974
vn 0.9978 -0.0635 -0.0183
vn 0.9984 -0.0493 -0.0267
vn 0.0636 -0.9550 -0.2898
vn 0.1842 -0.9248 -0.3328
vn -0.4689 0.1252 -0.8743
vn 0.0565 -0.5672 -0.8216
vn 0.9750 0.1295 -0.1805
vn 0.2089 -0.0658 -0.9757
vn 0.1665 -0.0112 -0.9860
vn 0.4305 0.6829 -0.5902
vn 0.9103 0.3082 -0.2765
vn 0.1196 -0.6336 -0.7644
vn 0.1158 -0.6321 -0.7662
vn 0.1642 -0.6511 -0.7410
vn 0.0818 -0.6175 -0.7823
vn -0.0662 0.5241 -0.8491
vn 0.2069 0.2954 -0.9327
vn 0.3130 0.2674 -0.9114
vn 0.9354 -0.1825 -0.3027
vn 0.9644 0.0215 -0.2635
vn 0.8015 -0.3820 0.4601
vn -0.1487 -0.2207 0.9639
vn -0.0841 0.3556 -0.9308
vt 0.330787 0.679387
vt 0.596003 0.069952
vt 0.738574 0.738389
vt 0.316522 0.626299
vt 0.561535 0.109502
vt 0.598157 0.360119
vt 0.854512 0.234604
vt 0.001082 0.429146
vt 0.753790 0.236331
vt 0.545255 0.958460
vt 0.694851 0.358286
vt 0.237517 0.683163
vt 0.817869 0.290941
vt 0.739181 0.829718
vt 0.147670 0.424278
vt 0.597100 0.508386
vt 0.101226 0.925112
vt 0.741173 0.737292
vt 0.596003 0.492064
vt 0.888183 0.823320
vt 0.536145 0.515698
vt 0.940625 0.825038
vt 0.870404 0.233507
vt 0.741925 0.621239
vt 0.535844 0.387300
vt 0.480917 0.418557
vt 0.867165 0.131837
vt 0.738574 0.517080
vt 0.737477 0.711774
vt 0.456062 0.330824
vt 0.396287 0.346192
vt 0.861949 0.014853
vt 0.000000 0.000000
vt 0.988246 0.630436
vt 0.280874 0.536931
vt 0.949172 0.493868
vt 0.576195 0.671376
vt 0.955346 0.718744
vt 0.312358 0.459861
vt 0.649398 0.706665
vt 0.455828 0.231998
vt 0.330787 0.424278
vt 0.420685 0.249958
vt 0.189984 0.913541
vt 0.372887 0.322223
vt 0.000000 0.000000
vt 0.788620 0.725007
vt 0.752726 0.233507
vt 0.954249 0.701688
vt 0.941849 0.145132
vt 0.435914 0.921956
vt 0.799224 0.643670
vt 0.803874 0.516795
vt 0.734353 0.645192
vt 0.116004 0.936278
vt 0.991508 0.916747
vt 0.808456 0.000548
vt 0.773237 0.905673
vt 0.338998 0.759381
vt 0.000000 0.000000
vt 0.804851 0.097982
vt 0.773237 0.999452
vt 0.284104 0.908118
vt 0.738574 0.980777
vt 0.350699 0.688502
vt 0.250008 0.910135
vt 0.842179 0.352851
vt 0.241871 0.615027
vt 0.854512 0.450515
vt 0.231565 0.516409
vt 0.942157 0.441595
vt 0.000548 0.634437
vt 0.000000 0.000000
vt 0.677307 0.653260
vt 0.719361 0.954917
vt 0.988246 0.751707
vt 0.686062 0.687030
vt 0.736987 0.992687
vt 0.736987 0.900404
vt 0.683939 0.596415
vt 0.934803 0.909858
vt 0.115838 0.000548
vt 0.362765 0.804276
vt 0.868023 0.737292
vt 0.874746 0.689914
vt 0.989758 0.000548
vt 0.855609 0.498023
vt 0.338998 0.922750
vt 0.486307 0.805373
vt 0.954249 0.594287
vt 0.496652 0.527189
vt 0.989758 0.105565
vt 0.868662 0.638080
vt 0.223340 0.789484
vt 0.942946 0.086363
vt 0.874031 0.402502
vt 0.805289 0.511327
vt 0.754345 0.102511
vt 0.941849 0.001130
vt 0.284104 0.962710
vt 0.885590 0.000548
vt 0.231565 0.960312
vt 0.399168 0.690786
vt 0.933706 0.969161
vt 0.871500 0.053088
vt 0.435914 0.805373
vt 0.396932 0.651382
vt 0.223340 0.923631
vt 0.959339 0.198219
vt 0.870077 0.538387
vt 0.737477 0.576166
vt 0.731536 0.712871
vt 0.570506 0.896152
vt 0.108572 0.766124
vt 0.736052 0.516795
vt 0.709467 0.768699
vt 0.990728 0.957079
vt 0.361797 0.731189
vt 0.072528 0.623386
vt 0.000000 0.000000
vt 0.949172 0.402502
vt 0.032970 0.653263
vt 0.618869 0.589053
vt 0.000000 0.000000
vt 0.060278 0.651908
vt 0.000000 0.000000
vt 0.546352 0.824799
vt 0.669917 0.521052
vt 0.100531 0.700216
vt 0.000000 0.000000
vt 0.522855 0.000548
vt 0.000548 0.423181
vt 0.836833 0.739821
vt 0.752726 0.293280
vt 0.491843 0.961956
vt 0.801895 0.829707
vt 0.836833 0.881725
vt 0.992994 0.240069
vt 0.145750 0.422956
vt 0.938030 0.215165
vt 0.418530 0.124539
vt 0.008798 0.252783
vt 0.904437 0.146229
vt 0.081677 0.251049
vt 0.189984 0.789484
vt 0.338998 0.171031
vt 0.019081 0.164410
vt 0.871500 0.215165
vt 0.350445 0.119593
vt 0.030701 0.216675
vt 0.991508 0.826135
vt 0.102323 0.861501
vt 0.099392 0.095861
vt 0.333431 0.970209
vt 0.127939 0.212023
vt 0.992994 0.403660
vt 0.132527 0.267504
vt 0.333431 0.908118
vt 0.546352 0.912720
vt 0.955848 0.306379
vt 0.565735 0.991025
vt 0.316312 0.981620
vt 0.166701 0.353474
vt 0.317409 0.917219
vt 0.565735 0.897249
vt 0.143203 0.264893
vt 0.146697 0.079015
vt 0.147770 0.450932
vt 0.062919 0.888239
vt 0.951567 0.319469
vt 0.101226 0.789484
vt 0.145675 0.558618
vt 0.230468 0.452140
vt 0.329945 0.907021
vt 0.951567 0.235220
vt 0.871174 0.595398
vt 0.867280 0.738388
vt 0.941060 0.498023
vt 0.191081 0.840244
vt 0.752726 0.511327
vt 0.648194 0.731982
vt 0.935564 0.404098
vt 0.867280 0.834691
vt 0.653664 0.900404
vt 0.718264 0.966261
vt 0.612879 0.767161
vt 0.781167 0.451612
vt 0.128648 0.766182
vt 0.837930 0.871055
vt 0.844006 0.451612
vt 0.570506 0.805373
vt 0.108615 0.676100
vt 0.511842 0.755534
vt 0.265607 0.016462
vt 0.952664 0.512733
vt 0.837930 0.758996
vt 0.902796 0.588658
vt 0.576195 0.923823
vt 0.654761 0.966261
vt 0.617745 0.823309
vt 0.871174 0.871159
vt 0.341062 0.806369
vt 0.437011 0.911779
vt 0.502071 0.612292
vt 0.476548 0.887662
vt 0.144122 0.788387
vt 0.860426 0.891614
vt 0.673065 0.795000
vt 0.645308 0.867888
vt 0.716786 0.150079
vt 0.933706 0.826135
vt 0.501695 0.712963
vt 0.486307 0.992215
vt 0.575098 0.671574
vt 0.656738 0.121851
vt 0.184351 0.755377
vt 0.844006 0.513187
vt 0.722541 0.191460
vt 0.751629 0.271726
vt 0.695948 0.366943
vt 0.179955 0.673859
vt 0.860426 0.835788
vt 0.716393 0.822293
vt 0.808561 0.480726
vt 0.806386 0.515001
vt 0.708806 0.855041
vt 0.678557 0.192340
vt 0.720075 0.426911
vt 0.693280 0.293245
vt 0.501176 0.804276
vt 0.999033 0.513749
vt 0.254754 0.003838
vt 0.925942 0.516795
vt 0.592857 0.993201
vt 0.569839 0.516795
vt 0.751629 0.000548
vt 0.654927 0.900404
vt 0.576195 0.853115
vt 0.653187 0.993201
vt 0.733308 0.067106
vt 0.574923 0.606995
vt 0.678236 0.046908
vt 0.731536 0.899307
vt 0.651851 0.210936
vt 0.230468 0.666098
vt 0.329945 0.697414
vt 0.747152 0.358286
vt 0.231565 0.684260
vt 0.747152 0.463370
vt 0.328921 0.190299
vt 0.668274 0.321924
vt 0.572777 0.757385
vt 0.326106 0.033090
vt 0.597100 0.179966
vt 0.800612 0.904576
vt 0.952664 0.234604
vt 0.316312 0.908118
vt 0.887791 0.401405
vt 0.487404 0.886877
vt 0.285201 0.920697
vt 0.857813 0.380923
vt 0.189186 0.418868
vt 0.492637 0.805373
vt 0.000548 0.868464
vt 0.886737 0.319493
vt 0.694851 0.508379
vt 0.545255 0.808110
vt 0.003175 0.923154
vt 0.299365 0.423181
vt 0.861278 0.272497
vt 0.303542 0.279724
vt 0.232497 0.899279
vt 0.855609 0.234604
vt 0.337901 0.414721
vt 0.221587 0.080200
vt 0.993460 0.629339
vt 0.223739 0.307675
vt 0.955346 0.574712
vt 0.220706 0.254941
vt 0.774334 0.933750
vt 0.865767 0.961701
vt 0.267857 0.237523
vt 0.999033 0.404757
vt 0.259636 0.115018
vt 0.266403 0.273077
vt 0.812601 0.905673
vt 0.993460 0.516795
vt 0.812601 0.986674
vt 0.238872 0.191676
vt 0.865767 0.905673
vt 0.685004 0.354372
vt 0.317228 0.225979
vt 0.813698 0.909552
vt 0.313027 0.183207
vt 0.624069 0.357190
s 1
f 1/1/1 5/12/2 2/4/3
f 24/68/4 2/4/3 5/12/2
f 5/13/5 3/7/6 24/67/7
f 3/8/8 6/15/9 58/172/10
f 10/26/11 9/25/12 7/19/13
f 9/25/12 10/26/11 12/31/14
f 2/4/15 13/35/16 14/39/17
f 14/38/17 13/34/16 27/76/18
f 15/43/19 11/30/20 16/45/21
f 17/47/22 30/84/23 7/18/24
f 17/47/22 7/18/24 9/24/25
f 19/52/26 17/47/22 9/24/25
f 20/53/27 9/24/28 11/28/29
f 19/52/30 9/24/28 20/53/27
f 24/68/4 13/35/31 2/4/3
f 13/37/32 41/123/33 28/80/34
f 20/54/35 11/29/36 27/77/37
f 21/56/38 39/117/38 29/81/38
f 30/85/39 60/176/40 31/90/41
f 8/23/42 18/48/43 34/98/44
f 28/80/34 20/54/35 27/77/37
f 20/53/27 37/110/45 19/52/30
f 36/104/46 68/201/47 72/211/48
f 3/8/8 58/172/10 40/119/49
f 28/80/34 43/128/50 38/115/51
f 47/141/52 44/131/53 1/2/54
f 3/7/6 5/13/5 45/134/55
f 4/9/56 3/7/6 45/134/55
f 87/259/57 4/10/58 45/135/59
f 47/141/52 1/2/54 2/5/60
f 15/42/61 2/4/15 14/39/17
f 47/141/52 15/43/19 49/146/62
f 16/44/63 21/55/64 51/152/65
f 51/151/66 21/56/66 29/81/66
f 48/143/67 47/140/68 50/148/69
f 49/145/70 16/44/63 51/152/65
f 52/155/71 49/147/70 51/153/65
f 50/150/69 52/155/72 48/144/67
f 54/160/73 46/138/74 53/156/75
f 55/166/76 95/277/77 54/163/78
f 53/157/79 48/144/80 52/155/81
f 56/167/82 96/279/83 52/155/84
f 51/153/85 56/167/82 52/155/84
f 62/182/86 60/178/87 33/96/88
f 37/108/89 61/179/89 33/94/89
f 18/51/90 31/88/91 68/202/92
f 43/127/93 64/191/93 38/113/93
f 64/192/94 63/188/95 38/114/96
f 38/114/96 63/188/95 70/206/97
f 40/119/49 75/221/98 64/192/94
f 40/119/99 64/192/100 42/125/101
f 29/83/102 39/118/103 65/193/104
f 31/90/41 60/176/40 66/197/105
f 62/183/106 66/196/106 60/177/106
f 62/184/107 81/239/108 66/198/109
f 68/203/110 31/89/111 69/205/112
f 70/208/113 67/200/114 62/186/115
f 70/208/116 71/209/117 67/200/118
f 73/214/119 69/204/120 82/241/121
f 73/214/119 72/212/122 69/204/120
f 63/188/95 64/192/94 75/221/98
f 74/216/123 63/188/95 75/221/98
f 76/222/124 70/207/124 63/189/124
f 77/225/125 63/190/126 74/217/127
f 65/193/104 72/212/122 73/214/119
f 86/252/128 65/193/104 73/214/119
f 58/172/129 57/168/129 75/221/129
f 57/168/130 59/173/131 75/221/132
f 78/229/133 74/218/134 75/219/135
f 67/199/136 81/237/136 62/185/136
f 81/238/137 67/200/137 71/209/137
f 82/242/138 81/240/139 73/215/140
f 75/221/132 59/173/131 84/245/141
f 77/226/142 83/243/143 71/209/117
f 93/272/144 84/246/145 59/174/146
f 93/272/144 85/248/147 84/246/145
f 78/228/148 75/220/149 84/247/150
f 85/249/151 78/228/148 84/247/150
f 83/244/152 86/254/153 73/215/140
f 87/259/57 90/267/154 4/10/58
f 91/270/155 57/170/156 89/265/157
f 93/274/158 91/269/158 88/262/158
f 92/271/159 93/274/160 88/262/161
f 100/289/162 94/275/163 98/284/164
f 79/232/165 56/167/82 29/82/166
f 56/167/82 79/232/165 94/275/163
f 100/287/167 95/276/167 96/278/167
f 96/279/168 94/275/163 100/289/162
f 56/167/82 94/275/163 96/279/83
f 98/284/169 86/253/170 102/294/171
f 92/271/172 88/262/173 99/285/174
f 86/254/153 83/244/152 85/251/175
f 4/11/176 6/16/177 3/6/178
f 8/21/179 10/26/11 7/19/13
f 11/30/20 9/25/12 12/31/14
f 27/77/37 11/29/36 14/40/180
f 15/43/19 14/41/181 11/30/20
f 16/45/21 11/30/20 12/31/14
f 8/22/182 7/20/183 18/49/184
f 18/49/184 7/20/183 30/85/39
f 10/27/185 8/23/42 34/98/44
f 22/61/186 10/27/186 34/98/186
f 12/32/187 10/27/188 22/61/189
f 21/57/190 12/32/187 22/61/189
f 23/64/191 21/58/191 22/62/191
f 24/67/192 3/7/192 25/69/192
f 25/70/193 13/35/31 24/68/4
f 41/121/194 13/36/195 25/71/196
f 26/74/197 27/77/18 13/37/16
f 26/74/198 13/37/32 28/80/34
f 27/78/199 26/75/199 28/79/199
f 39/118/200 21/59/201 23/65/202
f 17/47/22 32/93/203 30/84/23
f 31/90/41 18/49/184 30/85/39
f 19/52/204 32/93/203 17/47/22
f 36/105/205 34/99/206 18/50/207
f 33/95/208 30/86/209 32/92/210
f 32/92/210 37/109/211 33/95/208
f 35/101/212 34/99/206 36/105/205
f 68/202/92 36/106/213 18/51/90
f 19/52/30 37/110/45 32/93/214
f 37/111/215 20/54/35 28/80/34
f 28/80/34 38/115/51 37/111/215
f 39/118/200 23/65/202 35/103/216
f 35/102/217 23/66/218 22/63/219
f 35/102/217 22/63/219 34/100/220
f 72/212/48 35/103/216 36/107/46
f 72/212/48 39/118/200 35/103/216
f 25/72/196 3/8/8 40/119/49
f 42/125/221 41/122/194 40/119/49
f 43/128/50 28/80/34 41/123/33
f 1/3/222 44/133/223 5/14/224
f 45/136/225 5/14/224 44/133/223
f 47/142/226 46/139/227 44/132/228
f 46/137/229 45/136/225 44/133/223
f 46/137/229 87/255/230 45/136/225
f 54/160/73 87/256/231 46/138/74
f 15/43/19 47/141/52 2/5/60
f 16/45/21 49/146/62 15/43/19
f 49/146/62 50/149/232 47/141/52
f 48/144/80 53/157/79 47/142/226
f 47/142/226 53/157/79 46/139/227
f 49/147/70 52/155/71 50/150/233
f 51/153/85 29/82/166 56/167/82
f 52/154/234 55/164/235 53/158/236
f 53/159/236 55/165/235 54/161/237
f 55/166/238 52/155/84 96/279/83
f 4/11/176 90/266/239 6/16/177
f 57/169/240 58/171/241 6/17/242
f 33/96/88 60/178/87 30/87/243
f 61/181/244 38/116/244 62/186/244
f 70/208/113 62/186/115 38/116/245
f 61/180/246 62/187/246 33/97/246
f 37/112/247 38/116/247 61/181/247
f 75/221/98 40/119/49 58/172/10
f 43/129/248 42/125/101 64/192/100
f 65/193/104 39/118/103 72/212/122
f 79/230/249 29/83/102 65/193/104
f 31/90/41 66/197/105 80/233/250
f 81/239/108 80/234/251 66/198/109
f 12/33/187 21/60/190 16/46/252
f 82/241/121 69/204/120 31/91/253
f 82/241/121 31/91/253 80/235/254
f 72/213/255 68/203/110 69/205/112
f 77/226/142 70/208/116 76/223/256
f 77/225/125 76/224/257 63/190/126
f 70/208/116 77/226/142 71/209/117
f 78/229/133 77/227/258 74/218/134
f 86/253/170 98/284/169 65/194/259
f 82/242/138 80/236/260 81/240/139
f 83/244/152 73/215/140 81/240/139
f 71/210/261 83/244/152 81/240/139
f 78/229/262 83/244/263 77/227/264
f 88/260/265 87/257/265 54/162/265
f 88/261/266 89/265/157 87/258/267
f 89/263/268 90/267/154 87/259/57
f 90/268/269 57/169/240 6/17/242
f 90/268/269 89/264/270 57/169/240
f 88/261/266 91/270/155 89/265/157
f 91/270/155 59/175/271 57/170/156
f 91/270/155 93/273/272 59/175/271
f 95/277/273 88/262/273 54/163/273
f 96/279/274 95/277/77 55/166/76
f 98/283/275 79/231/275 65/195/275
f 94/275/163 79/232/165 98/284/164
f 95/277/276 99/285/174 88/262/173
f 95/277/276 100/289/277 99/285/174
f 92/271/278 99/285/278 97/282/278
f 99/286/279 100/288/279 97/280/279
f 97/281/280 102/293/281 101/290/282
f 102/294/281 97/282/280 100/289/283
f 98/284/169 102/294/171 100/289/284
f 92/271/159 101/292/285 93/274/160
f 101/292/285 85/250/286 93/274/160
f 101/291/287 102/295/288 85/251/175
f 85/251/289 83/244/263 78/229/262
f 102/295/288 86/254/153 85/251/175
f 41/124/194 25/73/196 40/120/49
f 41/124/33 42/126/290 43/130/50
f 97/282/291 101/292/285 92/271/159
