# Blender 3.3.2
# www.blender.org
o weeds1
v 8.445889 1.592723 -0.071768
v 8.378325 1.774761 0.037363
v 7.622778 0.138092 0.328510
v 7.613972 0.658037 0.464628
v 8.179316 0.241610 0.828741
v 8.250202 0.443955 0.707089
v 8.350600 -0.024028 0.372294
v 8.526307 0.105705 0.088489
v 8.616751 0.606468 0.257258
v 8.296590 0.340139 0.510064
v 7.903197 0.105705 -0.297287
v 7.727489 -0.024028 -0.013482
v 7.618239 0.282428 -0.025762
v 7.784279 0.653713 -0.363770
v 8.738201 1.592723 0.109206
v 8.672558 1.785924 0.215234
v 7.762082 0.138092 0.414755
v 7.742159 0.438002 0.402669
v 8.027118 0.282428 0.227380
v 8.232610 0.647426 -0.024113
v 8.214752 0.105705 -0.104399
v 8.039044 -0.024028 0.179406
v 7.265735 1.357329 0.183724
v 7.210845 1.189719 0.125735
v 7.331329 1.217592 -0.068873
v 7.386219 1.385203 -0.010884
v 6.907430 1.915676 0.214439
v 6.842889 1.773965 0.154184
v 6.976257 1.804819 -0.061233
v 7.040797 1.946530 -0.000978
v 6.746154 2.372560 0.228322
v 6.629212 2.242736 0.137327
v 6.783633 2.278461 -0.112097
v 6.900575 2.408285 -0.021102
v 6.746154 2.372560 0.228322
v 6.629212 2.242736 0.137327
v 6.783633 2.278461 -0.112097
v 6.900575 2.408285 -0.021102
v 6.625717 3.039772 0.174629
v 6.547074 2.951536 0.113302
v 6.616844 2.967678 0.000608
v 6.695487 3.055913 0.061935
v 6.625717 3.039772 0.174629
v 6.547074 2.951536 0.113302
v 6.616844 2.967678 0.000608
v 6.695487 3.055913 0.061935
v 6.504131 3.572186 0.096511
v 7.709537 1.109034 0.968344
v 7.705353 0.878851 0.985624
v 7.444553 0.884059 0.822999
v 7.448737 1.114242 0.805719
v 7.668747 1.254940 1.012852
v 7.608897 1.086868 1.129030
v 7.348097 1.092076 0.966405
v 7.423763 1.254940 0.861180
v 7.591076 1.608334 1.140680
v 7.397822 1.866170 1.444036
v 7.135469 1.866170 1.281610
v 7.328724 1.608334 0.978254
v 7.557137 2.333800 1.181572
v 7.391134 2.335431 1.449702
v 7.141249 2.335431 1.294995
v 7.307251 2.333800 1.026865
v 7.457626 3.356476 1.285899
v 7.340690 2.830891 1.447810
v 7.078337 2.830891 1.285384
v 7.195274 3.356476 1.123473
v 7.355822 3.980200 1.227575
v 8.774323 1.079177 0.777457
v 8.922281 1.113407 0.538472
v 8.771512 1.298017 0.468505
v 8.623553 1.263787 0.707491
v 8.749434 1.912053 0.919279
v 8.882252 1.947986 0.704750
v 8.773868 2.004831 0.643479
v 8.641050 1.968898 0.858007
v 8.673836 2.451220 0.813305
v 8.743230 2.467274 0.701220
v 8.712072 2.447437 0.677652
v 8.642679 2.431383 0.789737
v 8.479900 2.766936 0.825012
v 8.549204 2.782969 0.713071
v 8.530602 2.747691 0.695065
v 8.461297 2.731658 0.807006
v 8.486862 1.993036 -0.070745
v 8.438708 2.130809 0.007035
v 8.713212 1.993036 0.069391
v 8.666546 2.139453 0.144768
v 8.472554 2.785243 -0.175634
v 8.423935 2.837830 -0.097104
v 8.765570 2.785243 0.005776
v 8.718877 2.849020 0.081196
v 8.483850 3.061981 -0.202982
v 8.410079 3.065771 -0.083827
v 8.776866 3.061981 -0.021572
v 8.705021 3.076961 0.094473
v 8.456431 3.837861 -0.156345
v 8.411792 3.840154 -0.084243
v 8.633738 3.837861 -0.046573
v 8.590263 3.846925 0.023647
v 8.467634 4.077024 -0.119775
v 8.437032 4.078596 -0.070345
v 8.589186 4.077024 -0.044520
v 8.559382 4.083238 0.003619
v 8.516438 4.223820 -0.067378
v 8.082724 1.364592 -0.184556
v 7.722276 1.303059 -0.416232
v 8.150920 1.125460 -0.300183
v 7.799005 1.165347 -0.511182
v 7.984520 1.832870 -0.416998
v 7.762666 1.787192 -0.569107
v 8.030128 1.629891 -0.525829
v 7.827852 1.629891 -0.651060
v 8.063347 2.316059 -0.409187
v 7.865400 2.325666 -0.588017
v 8.178358 2.304550 -0.547542
v 7.976441 2.309704 -0.682333
v 7.584711 0.697885 -0.438656
v 7.416938 0.659071 -0.167666
v 7.455186 0.859356 -0.115299
v 7.622960 0.898170 -0.386289
v 7.370325 1.369221 -0.533518
v 7.259904 1.343675 -0.355165
v 7.402592 1.385192 -0.260879
v 7.513012 1.410737 -0.439232
v 7.511309 2.030971 -0.398905
v 7.401487 2.005564 -0.221520
v 7.482873 1.900106 -0.186237
v 7.592695 1.925513 -0.363622
v 7.685049 2.597058 -0.085752
v 7.982628 2.685347 -0.185077
v 7.769890 2.729977 -0.340016
v 8.083471 2.739849 -0.300548
v 7.877485 2.749616 -0.428767
v 7.764972 3.091528 0.029596
v 8.236538 2.988438 0.740004
vn -0.7800 0.0805 -0.6206
vn 0.9415 -0.0376 0.3349
vn -0.2138 -0.1534 0.9647
vn 0.5253 -0.0630 -0.8485
vn -0.2234 -0.9055 0.3608
vn -0.7215 0.1285 -0.6803
vn 0.4678 0.7787 -0.4181
vn -0.4098 0.6871 0.5999
vn 0.1907 -0.9321 -0.3080
vn -0.7372 -0.1373 0.6615
vn 0.3553 0.0207 -0.9345
vn -0.5588 0.0418 0.8282
vn -0.2229 -0.2010 0.9539
vn 0.5103 -0.1264 -0.8507
vn -0.4395 0.7548 0.4869
vn 0.2346 0.8830 -0.4064
vn 0.9827 -0.0974 0.1573
vn -0.2148 -0.8868 0.4092
vn 0.5512 0.1669 0.8175
vn 0.3373 0.2197 -0.9154
vn 0.9510 0.3087 0.0165
vn -0.8926 -0.3469 -0.2878
vn 0.5895 0.1442 -0.7948
vn 0.8019 0.2668 0.5347
vn -0.7351 -0.4377 -0.5178
vn 0.7330 0.4419 0.5171
vn -0.2989 -0.2379 0.9242
vn -0.4550 -0.1815 0.8718
vn 0.5218 0.1216 -0.8444
vn -0.7660 -0.3681 -0.5270
vn 0.8220 0.1915 0.5363
vn 0.8033 0.2619 0.5349
vn 0.4125 0.2433 -0.8779
vn -0.5855 -0.0405 0.8097
vn -0.8371 -0.1151 -0.5348
vn -0.6008 -0.0199 0.7991
vn 0.4347 0.2196 -0.8734
vn -0.8433 -0.0728 -0.5325
vn -0.8479 0.0070 -0.5301
vn 0.4157 0.5979 -0.6853
vn -0.8414 -0.0548 -0.5376
vn -0.4907 -0.5552 0.6716
vn 0.4848 0.3898 -0.7830
vn -0.4162 -0.6390 0.6469
vn 0.4899 0.3852 -0.7820
vn 0.8440 0.0434 0.5346
vn -0.8430 0.0168 -0.5376
vn 0.8578 0.0178 0.5137
vn -0.8372 -0.0189 -0.5466
vn -0.4773 -0.4390 0.7612
vn -0.5257 -0.0503 0.8492
vn -0.5263 -0.0178 0.8501
vn 0.5250 0.0724 -0.8480
vn 0.8483 0.0082 0.5295
vn 0.5264 0.0064 -0.8502
vn 0.5215 0.1367 -0.8423
vn 0.8112 0.0408 0.5834
vn -0.8001 -0.0580 -0.5970
vn 0.4799 0.1590 0.8628
vn -0.9688 0.2375 0.0712
vn -0.5190 0.1675 0.8382
vn 0.5785 0.1898 -0.7933
vn -0.7756 0.3621 -0.5170
vn 0.5038 0.1665 -0.8476
vn 0.8121 -0.4605 0.3583
vn 0.5412 0.1394 -0.8293
vn 0.8529 -0.0626 0.5183
vn -0.5590 -0.1574 0.8141
vn -0.8519 0.1290 -0.5075
vn 0.4054 0.2884 -0.8675
vn 0.8132 0.2206 0.5386
vn -0.4940 0.1135 0.8620
vn -0.8423 -0.0761 -0.5336
vn 0.1687 0.3761 -0.9111
vn 0.7371 0.4335 0.5184
vn -0.4057 -0.2880 0.8674
vn -0.7438 -0.4193 -0.5205
vn -0.8883 -0.0803 -0.4522
vn 0.5257 -0.0516 -0.8491
vn -0.5152 0.1591 0.8422
vn 0.9160 0.0947 0.3898
vn 0.8535 0.0188 0.5207
vn 0.8420 -0.0130 0.5394
vn 0.5236 -0.1025 -0.8458
vn -0.5171 0.1141 0.8483
vn -0.5174 0.0016 0.8558
vn 0.5235 -0.1049 -0.8455
vn -0.5134 -0.0810 0.8543
vn -0.8525 -0.0189 -0.5224
vn 0.8489 0.1538 0.5057
vn -0.8502 0.0016 -0.5264
vn 0.8473 0.1725 0.5023
vn 0.5251 0.0695 -0.8482
vn 0.5221 0.1274 -0.8433
vn 0.5235 0.1048 -0.8456
vn -0.5175 0.0049 0.8557
vn -0.8424 0.1198 -0.5254
vn -0.5067 0.2603 0.8219
vn -0.7627 0.4270 -0.4858
vn 0.7826 0.4541 0.4259
vn 0.9717 0.2339 0.0320
vn 0.9873 0.0955 -0.1268
vn -0.7128 -0.1752 -0.6792
vn -0.5783 0.0373 0.8150
vn -0.6508 0.1033 -0.7522
vn 0.4856 -0.2678 -0.8321
vn -0.8496 -0.0979 -0.5183
vn -0.5637 0.2801 0.7770
vn -0.6210 0.1188 0.7748
vn 0.7685 -0.1432 0.6236
vn 0.5336 -0.1495 -0.8324
vn 0.7633 -0.1942 0.6162
vn 0.5809 0.0578 -0.8119
vn 0.6949 0.3594 0.6229
vn -0.6814 -0.4668 -0.5637
vn -0.7471 -0.1558 0.6462
vn -0.5116 -0.0553 0.8574
vn 0.8125 0.2296 0.5359
vn -0.6892 0.0788 0.7203
vn -0.7826 -0.3249 -0.5310
vn -0.4110 -0.0122 0.9116
vn -0.8346 0.2749 -0.4773
vn 0.5119 0.0571 -0.8571
vn 0.8452 -0.2034 0.4942
vn -0.7794 0.4690 -0.4154
vn 0.6190 0.2261 -0.7521
vn 0.8281 -0.3078 0.4686
vn -0.5791 0.5789 -0.5740
vn 0.4782 0.5134 -0.7125
vn -0.6169 0.2921 -0.7309
vn -0.5801 -0.5165 0.6298
vn -0.5490 -0.6011 0.5807
vn 0.7421 0.0441 0.6689
vn 0.3506 0.7899 -0.5031
vn 0.5217 0.7377 0.4286
vn -0.4731 -0.1896 0.8603
vn -0.6021 -0.6485 -0.4657
vt 0.208763 0.625000
vt 0.791237 0.625000
vt 0.375000 0.750000
vt 0.625000 0.750000
vt 0.375000 0.500000
vt 0.625000 0.500000
vt 0.375000 0.417096
vt 0.292096 0.500000
vt 0.375000 0.333762
vt 0.208763 0.500000
vt 0.791237 0.500000
vt 0.625000 0.333762
vt 0.625000 0.417096
vt 0.707904 0.500000
vt 0.375000 0.916237
vt 0.208763 0.750000
vt 0.292096 0.750000
vt 0.375000 0.832904
vt 0.707904 0.750000
vt 0.625000 0.832904
vt 0.625000 0.916237
vt 0.791237 0.750000
vt 0.208763 0.500000
vt 0.375000 0.333762
vt 0.791237 0.500000
vt 0.625000 0.333762
vt 0.375000 0.625000
vt 0.625000 0.625000
vt 0.707904 0.625000
vt 0.791237 0.625000
vt 0.208763 0.625000
vt 0.292096 0.625000
vt 0.625000 0.750000
vt 0.375000 0.750000
vt 0.375000 0.832904
vt 0.292096 0.750000
vt 0.625000 0.832904
vt 0.707904 0.750000
vt 0.625000 0.750000
vt 0.375000 0.750000
vt 0.375000 0.832904
vt 0.292096 0.750000
vt 0.707904 0.750000
vt 0.625000 0.832904
vt 0.625000 0.750000
vt 0.375000 0.750000
vt 0.375000 0.832904
vt 0.292096 0.750000
vt 0.707904 0.750000
vt 0.625000 0.832904
vt 0.000000 0.000000
vt 0.000000 0.000000
vt 0.000000 0.000000
vt 0.000000 0.000000
vt 0.625000 0.750000
vt 0.375000 0.750000
vt 0.375000 0.832904
vt 0.292096 0.750000
vt 0.707904 0.750000
vt 0.625000 0.832904
vt 0.000000 0.000000
vt 0.000000 0.000000
vt 0.000000 0.000000
vt 0.000000 0.000000
vt 0.625000 0.750000
vt 0.375000 0.750000
vt 0.000000 0.000000
vt 0.625000 0.832904
vt 0.292096 0.750000
vt 0.625000 0.500000
vt 0.375000 0.500000
vt 0.375000 0.625000
vt 0.625000 0.625000
vt 0.625000 0.500000
vt 0.375000 0.500000
vt 0.375000 0.625000
vt 0.625000 0.625000
vt 0.625000 0.500000
vt 0.375000 0.500000
vt 0.375000 0.625000
vt 0.625000 0.625000
vt 0.625000 0.500000
vt 0.375000 0.500000
vt 0.375000 0.625000
vt 0.625000 0.625000
vt 0.625000 0.500000
vt 0.375000 0.500000
vt 0.375000 0.625000
vt 0.625000 0.625000
vt 0.625000 0.500000
vt 0.375000 0.500000
vt 0.625000 0.625000
vt 0.375000 0.625000
vt 0.292096 0.500000
vt 0.375000 0.417096
vt 0.375000 0.333762
vt 0.208763 0.500000
vt 0.625000 0.333762
vt 0.791237 0.500000
vt 0.625000 0.417096
vt 0.707904 0.500000
vt 0.292096 0.500000
vt 0.375000 0.417096
vt 0.375000 0.333762
vt 0.208763 0.500000
vt 0.625000 0.333762
vt 0.791237 0.500000
vt 0.625000 0.417096
vt 0.707904 0.500000
vt 0.292096 0.500000
vt 0.375000 0.417096
vt 0.375000 0.333762
vt 0.208763 0.500000
vt 0.625000 0.333762
vt 0.791237 0.500000
vt 0.625000 0.417096
vt 0.707904 0.500000
vt 0.292096 0.500000
vt 0.375000 0.417096
vt 0.375000 0.333762
vt 0.208763 0.500000
vt 0.625000 0.333762
vt 0.791237 0.500000
vt 0.625000 0.417096
vt 0.707904 0.500000
vt 0.208763 0.625000
vt 0.791237 0.625000
vt 0.375000 0.333762
vt 0.208763 0.500000
vt 0.625000 0.333762
vt 0.791237 0.500000
vt 0.208763 0.625000
vt 0.791237 0.625000
vt 0.375000 0.333762
vt 0.208763 0.500000
vt 0.625000 0.333762
vt 0.791237 0.500000
vt 0.208763 0.625000
vt 0.791237 0.625000
vt 0.375000 0.333762
vt 0.208763 0.500000
vt 0.791237 0.500000
vt 0.625000 0.333762
vt 0.208763 0.625000
vt 0.791237 0.625000
vt 0.375000 0.333762
vt 0.208763 0.500000
vt 0.625000 0.333762
vt 0.791237 0.500000
vt 0.208763 0.625000
vt 0.791237 0.625000
vt 0.208763 0.500000
vt 0.375000 0.333762
vt 0.791237 0.500000
vt 0.625000 0.333762
vt 0.208763 0.500000
vt 0.791237 0.625000
vt 0.208763 0.625000
vt 0.625000 0.333762
vt 0.791237 0.625000
vt 0.625000 0.916237
vt 0.791237 0.750000
vt 0.208763 0.625000
vt 0.208763 0.750000
vt 0.375000 0.916237
vt 0.791237 0.625000
vt 0.625000 0.916237
vt 0.791237 0.750000
vt 0.208763 0.625000
vt 0.375000 0.916237
vt 0.208763 0.750000
vt 0.791237 0.625000
vt 0.625000 0.916237
vt 0.791237 0.750000
vt 0.208763 0.625000
vt 0.208763 0.750000
vt 0.375000 0.916237
vt 0.375000 0.916237
vt 0.208763 0.750000
vt 0.375000 0.832904
vt 0.292096 0.750000
vt 0.707904 0.750000
vt 0.625000 0.832904
vt 0.625000 0.916237
vt 0.791237 0.750000
vt 0.208763 0.750000
vt 0.375000 0.916237
vt 0.375000 0.832904
vt 0.292096 0.750000
vt 0.625000 0.832904
vt 0.707904 0.750000
vt 0.625000 0.916237
vt 0.791237 0.750000
vt 0.208763 0.750000
vt 0.375000 0.916237
vt 0.375000 0.832904
vt 0.292096 0.750000
vt 0.625000 0.832904
vt 0.707904 0.750000
vt 0.625000 0.916237
vt 0.791237 0.750000
vt 0.375000 0.832904
vt 0.208763 0.750000
vt 0.625000 0.916237
vt 0.707904 0.750000
vt 0.791237 0.625000
vt 0.625000 0.916237
vt 0.791237 0.750000
vt 0.208763 0.625000
vt 0.375000 0.916237
vt 0.208763 0.750000
vt 0.375000 0.916237
vt 0.791237 0.750000
vt 0.791237 0.625000
vt 0.208763 0.625000
vt 0.375000 0.333762
vt 0.292096 0.500000
vt 0.625000 0.417096
vt 0.791237 0.500000
s 0
f 1/1/1 2/2/1 86/127/1 85/126/1
f 7/7/2 10/13/2 6/6/2 5/5/2
f 17/27/3 18/28/3 4/4/3 3/3/3
f 8/10/4 21/31/4 1/1/4 15/23/4
f 22/32/5 17/27/5 3/3/5 12/17/5
f 21/31/6 20/30/6 2/2/6 1/1/6
f 18/28/7 19/29/7 13/19/7 4/4/7
f 19/29/8 20/30/8 14/22/8 13/19/8
f 21/31/9 22/32/9 12/17/9 11/16/9
f 3/3/10 4/4/10 23/33/10 24/34/10
f 14/21/11 11/15/11 118/178/11 121/184/11
f 20/30/12 9/11/12 16/25/12 2/2/12
f 10/13/13 7/7/13 69/95/13 72/100/13
f 8/10/9 7/8/9 22/32/9 21/31/9
f 21/31/14 11/16/14 109/164/14 108/163/14
f 10/14/15 9/11/15 20/30/15 19/29/15
f 6/6/16 10/14/16 19/29/16 18/28/16
f 9/12/17 8/9/17 15/24/17 16/26/17
f 7/8/18 5/5/18 17/27/18 22/32/18
f 5/5/19 6/6/19 48/70/19 49/71/19
f 26/37/20 25/35/20 29/41/20 30/44/20
f 4/4/21 13/19/21 26/38/21 23/33/21
f 12/17/22 3/3/22 24/34/22 25/36/22
f 13/20/23 12/18/23 25/35/23 26/37/23
f 27/39/24 30/43/24 34/49/24 31/45/24
f 25/36/25 24/34/25 28/40/25 29/42/25
f 23/33/26 26/38/26 30/43/26 27/39/26
f 24/34/27 23/33/27 27/39/27 28/40/27
f 28/40/28 27/39/28 31/45/28 32/46/28
f 30/44/29 29/41/29 33/47/29 34/50/29
f 29/42/30 28/40/30 32/46/30 33/48/30
f 31/45/31 34/49/31 42/59/31 39/55/31
f 43/61/32 46/64/32 47/67/32
f 38/54/33 37/53/33 45/63/33 46/64/33
f 32/46/34 31/45/34 39/55/34 40/56/34
f 37/53/35 36/52/35 44/62/35 45/63/35
f 34/50/33 33/47/33 41/57/33 42/60/33
f 33/48/35 32/46/35 40/56/35 41/58/35
f 35/51/31 38/54/31 46/64/31 43/61/31
f 36/52/34 35/51/34 43/61/34 44/62/34
f 44/62/36 43/61/36 47/67/36
f 39/55/32 42/59/32 47/65/32
f 40/56/36 39/55/36 47/66/36
f 46/64/37 45/63/37 47/67/37
f 45/63/38 44/62/38 47/67/38
f 42/60/37 41/57/37 47/68/37
f 41/58/38 40/56/38 47/69/38
f 51/73/39 50/72/39 54/76/39 55/77/39
f 6/6/40 18/28/40 51/73/40 48/70/40
f 18/28/41 17/27/41 50/72/41 51/73/41
f 17/27/42 5/5/42 49/71/42 50/72/42
f 52/74/43 55/77/43 59/81/43 56/78/43
f 50/72/44 49/71/44 53/75/44 54/76/44
f 48/70/45 51/73/45 55/77/45 52/74/45
f 49/71/46 48/70/46 52/74/46 53/75/46
f 59/81/47 58/80/47 62/84/47 63/85/47
f 53/75/48 52/74/48 56/78/48 57/79/48
f 55/77/49 54/76/49 58/80/49 59/81/49
f 54/76/50 53/75/50 57/79/50 58/80/50
f 62/84/51 61/83/51 65/87/51 66/88/51
f 58/80/52 57/79/52 61/83/52 62/84/52
f 56/78/53 59/81/53 63/85/53 60/82/53
f 57/79/54 56/78/54 60/82/54 61/83/54
f 64/86/55 67/89/55 68/90/55
f 60/82/56 63/85/56 67/89/56 64/86/56
f 61/83/57 60/82/57 64/86/57 65/87/57
f 63/85/58 62/84/58 66/88/58 67/89/58
f 65/87/59 64/86/59 68/91/59
f 67/89/60 66/88/60 68/92/60
f 66/88/61 65/87/61 68/93/61
f 70/96/62 71/98/62 75/106/62 74/104/62
f 9/11/63 10/14/63 72/101/63 71/99/63
f 8/9/64 9/12/64 71/98/64 70/96/64
f 7/8/65 8/10/65 70/97/65 69/94/65
f 74/104/66 75/106/66 79/114/66 78/112/66
f 69/94/67 70/97/67 74/105/67 73/102/67
f 72/100/68 69/95/68 73/103/68 76/108/68
f 71/99/69 72/101/69 76/109/69 75/107/69
f 78/112/70 79/114/70 83/122/70 82/120/70
f 73/102/71 74/105/71 78/113/71 77/110/71
f 76/108/72 73/103/72 77/111/72 80/116/72
f 75/107/73 76/109/73 80/117/73 79/115/73
f 82/120/74 83/122/74 136/216/74
f 77/110/75 78/113/75 82/121/75 81/118/75
f 80/116/76 77/111/76 81/119/76 84/124/76
f 79/115/77 80/117/77 84/125/77 83/123/77
f 85/126/78 86/127/78 90/133/78 89/132/78
f 15/23/79 1/1/79 85/126/79 87/129/79
f 2/2/80 16/25/80 88/131/80 86/127/80
f 16/26/81 15/24/81 87/128/81 88/130/81
f 92/136/82 91/134/82 95/140/82 96/143/82
f 88/130/83 87/128/83 91/134/83 92/136/83
f 87/129/84 85/126/84 89/132/84 91/135/84
f 86/127/85 88/131/85 92/137/85 90/133/85
f 94/139/86 96/142/86 100/149/86 98/145/86
f 91/135/87 89/132/87 93/138/87 95/141/87
f 90/133/88 92/137/88 96/142/88 94/139/88
f 89/132/89 90/133/89 94/139/89 93/138/89
f 100/148/90 99/146/90 103/153/90 104/155/90
f 93/138/91 94/139/91 98/145/91 97/144/91
f 96/143/92 95/140/92 99/146/92 100/148/92
f 95/141/93 93/138/93 97/144/93 99/147/93
f 103/152/94 101/150/94 105/156/94
f 99/147/95 97/144/95 101/150/95 103/152/95
f 98/145/96 100/149/96 104/154/96 102/151/96
f 97/144/97 98/145/97 102/151/97 101/150/97
f 102/151/98 104/154/98 105/157/98
f 101/150/99 102/151/99 105/158/99
f 104/155/100 103/153/100 105/159/100
f 106/160/101 108/163/101 112/169/101 110/166/101
f 20/30/102 21/31/102 108/163/102 106/160/102
f 11/15/103 14/21/103 107/161/103 109/165/103
f 14/22/104 20/30/104 106/160/104 107/162/104
f 113/170/105 111/167/105 115/173/105 117/177/105
f 108/163/106 109/164/106 113/171/106 112/169/106
f 109/165/107 107/161/107 111/167/107 113/170/107
f 107/162/108 106/160/108 110/166/108 111/168/108
f 111/168/109 110/166/109 114/172/109 115/174/109
f 110/166/110 112/169/110 116/175/110 114/172/110
f 112/169/111 113/171/111 117/176/111 116/175/111
f 114/172/112 116/175/112 133/209/112 131/206/112
f 121/184/113 118/178/113 122/187/113 125/192/113
f 13/19/114 14/22/114 121/185/114 120/182/114
f 11/16/115 12/17/115 119/181/115 118/179/115
f 12/18/116 13/20/116 120/183/116 119/180/116
f 123/188/117 124/190/117 128/198/117 127/196/117
f 120/182/118 121/185/118 125/193/118 124/191/118
f 119/180/119 120/183/119 124/190/119 123/188/119
f 118/179/120 119/181/120 123/189/120 122/186/120
f 127/196/121 128/198/121 130/202/121
f 122/186/122 123/189/122 127/197/122 126/194/122
f 125/192/123 122/187/123 126/195/123 129/200/123
f 124/191/124 125/193/124 129/201/124 128/199/124
f 126/194/125 127/197/125 130/203/125
f 129/200/126 126/195/126 130/204/126
f 128/199/127 129/201/127 130/205/127
f 134/210/128 132/207/128 135/212/128
f 116/175/129 117/176/129 134/211/129 133/209/129
f 117/177/130 115/173/130 132/207/130 134/210/130
f 115/174/131 114/172/131 131/206/131 132/208/131
f 132/208/132 131/206/132 135/213/132
f 131/206/133 133/209/133 135/214/133
f 133/209/134 134/211/134 135/215/134
f 81/118/135 82/121/135 136/217/135
f 84/124/136 81/119/136 136/218/136
f 83/123/137 84/125/137 136/219/137
