# Blender 3.3.2
# www.blender.org
mtllib flower.mtl
o flower_looing_coral
v -0.180892 1.021701 0.162175
v -0.013242 1.022776 0.236150
v -0.244217 1.018450 -0.006900
v -0.166122 1.014927 -0.172033
v 0.007645 1.013197 -0.236491
v 0.175295 1.014272 -0.162516
v 0.238620 1.017523 0.006559
v 0.160525 1.021045 0.171692
v 0.198518 1.019332 0.091357
v 0.206958 1.015897 -0.077979
v 0.091470 1.013734 -0.199504
v -0.079238 1.014062 -0.204262
v -0.205169 1.016689 -0.089466
v -0.212554 1.020075 0.077638
v -0.097067 1.022238 0.199163
v 0.073642 1.021911 0.203921
v -0.180892 1.021701 0.162175
v -0.013242 1.022776 0.236150
v -0.244217 1.018450 -0.006900
v -0.166122 1.014928 -0.172033
v 0.007645 1.013197 -0.236491
v 0.175295 1.014272 -0.162516
v 0.238620 1.017523 0.006559
v 0.160526 1.021045 0.171692
v 0.023042 0.955721 -0.584894
v -0.028639 0.979422 0.584553
v 0.401311 0.975140 0.425065
v 0.437855 0.958381 -0.401860
v -0.406907 0.960003 -0.425406
v -0.600136 0.968719 -0.016821
v 0.594539 0.966425 0.016479
v -0.443452 0.976762 0.401519
v 0.198518 1.019332 0.091357
v 0.206958 1.015898 -0.077979
v 0.091470 1.013734 -0.199504
v -0.079238 1.014062 -0.204262
v -0.205169 1.016689 -0.089466
v -0.212554 1.020075 0.077638
v -0.097067 1.022238 0.199163
v 0.073642 1.021911 0.203921
v -0.180892 0.969005 0.162175
v -0.013242 0.970080 0.236150
v -0.244217 0.965755 -0.006900
v -0.166122 0.962232 -0.172033
v 0.007645 0.960501 -0.236491
v 0.175295 0.961577 -0.162516
v 0.238620 0.964828 0.006559
v 0.160526 0.968350 0.171692
v 0.023042 0.903026 -0.584894
v -0.028639 0.926727 0.584553
v 0.401311 0.922445 0.425065
v 0.437855 0.905686 -0.401859
v -0.406907 0.907308 -0.425406
v -0.600136 0.916023 -0.016821
v 0.594539 0.913729 0.016479
v -0.443452 0.924067 0.401519
v 0.198518 0.966636 0.091357
v 0.206958 0.963202 -0.077979
v 0.091470 0.961039 -0.199504
v -0.079238 0.961367 -0.204262
v -0.205169 0.963993 -0.089466
v -0.212554 0.967380 0.077638
v -0.097067 0.969543 0.199163
v 0.073642 0.969215 0.203921
v -0.180892 0.960645 0.162175
v -0.013242 0.961720 0.236150
v -0.244217 0.957395 -0.006900
v -0.166122 0.953872 -0.172033
v 0.007645 0.952142 -0.236491
v 0.175295 0.953217 -0.162516
v 0.238620 0.956468 0.006559
v 0.160526 0.959990 0.171692
v 0.524427 0.973848 0.376107
v 0.627148 0.968489 0.122890
v 0.528583 0.987338 0.241138
v 0.621090 0.971579 0.275466
v 0.637211 0.964283 -0.084551
v 0.558722 0.959277 -0.342544
v 0.552816 0.978061 -0.206465
v 0.646027 0.961220 -0.235416
v 0.395470 0.956469 -0.501959
v 0.156149 0.954516 -0.628294
v 0.236057 0.975237 -0.505236
v 0.293878 0.954476 -0.613344
v -0.104286 0.955027 -0.635009
v -0.354425 0.957859 -0.525295
v -0.195471 0.976334 -0.515084
v -0.243620 0.955496 -0.628879
v -0.534075 0.961388 -0.372341
v -0.632952 0.966766 -0.117739
v -0.537223 0.980310 -0.236264
v -0.629294 0.963685 -0.270121
v -0.642503 0.970846 0.083518
v -0.564138 0.975860 0.341924
v -0.557999 0.989142 0.205588
v -0.651348 0.973912 0.234508
v -0.401054 0.978665 0.501131
v -0.161360 0.980619 0.627569
v -0.241093 0.996837 0.503710
v -0.299225 0.980656 0.612465
v 0.098897 0.980110 0.634391
v 0.349167 0.977270 0.524284
v 0.189765 0.996197 0.513480
v 0.238318 0.979635 0.627978
v 0.627148 0.915793 0.122890
v 0.524427 0.921152 0.376107
v 0.528583 0.934642 0.241138
v 0.621090 0.918884 0.275466
v 0.558722 0.906581 -0.342544
v 0.637211 0.911587 -0.084551
v 0.552816 0.925365 -0.206465
v 0.646027 0.908524 -0.235416
v 0.156149 0.901820 -0.628294
v 0.395470 0.903773 -0.501959
v 0.236057 0.922541 -0.505236
v 0.293878 0.901780 -0.613344
v -0.354425 0.905164 -0.525295
v -0.104286 0.902332 -0.635009
v -0.195471 0.923639 -0.515084
v -0.243620 0.902801 -0.628879
v -0.632952 0.914070 -0.117739
v -0.534075 0.908693 -0.372341
v -0.537223 0.927615 -0.236264
v -0.629294 0.910989 -0.270121
v -0.564138 0.923165 0.341924
v -0.642503 0.918151 0.083518
v -0.557999 0.936447 0.205588
v -0.651348 0.921216 0.234508
v -0.161360 0.927923 0.627569
v -0.401054 0.925969 0.501130
v -0.241093 0.944142 0.503710
v -0.299225 0.927961 0.612465
v 0.349167 0.924574 0.524284
v 0.098897 0.927415 0.634391
v 0.189765 0.943501 0.513479
v 0.238318 0.926939 0.627978
v 0.008387 -0.007492 0.358369
v -0.023750 0.763467 0.423580
v -0.300456 0.764277 0.289660
v -0.245436 -0.006807 0.245124
v -0.412845 0.764681 -0.014150
v -0.340473 -0.006465 -0.011780
v -0.271620 0.764443 -0.309881
v -0.221052 -0.006667 -0.261853
v 0.017031 0.763701 -0.424299
v 0.042872 -0.007294 -0.358606
v 0.302535 0.762891 -0.290378
v 0.296695 -0.007979 -0.245361
v 0.414923 0.762487 0.013431
v 0.391732 -0.008321 0.011543
v 0.273698 0.762725 0.309162
v 0.272310 -0.008119 0.261616
v -0.180892 0.960645 0.162175
v -0.013242 0.961720 0.236150
v -0.244217 0.957395 -0.006900
v -0.166122 0.953872 -0.172033
v 0.007645 0.952142 -0.236491
v 0.175295 0.953217 -0.162516
v 0.238620 0.956468 0.006559
v 0.160526 0.959990 0.171692
v -0.007775 0.238679 0.466001
v -0.314440 0.239570 0.318715
v -0.438046 0.240015 -0.015417
v -0.282725 0.239753 -0.340665
v 0.037077 0.238938 -0.466502
v 0.352539 0.238047 -0.319216
v 0.476145 0.237602 0.014916
v 0.320824 0.237864 0.340164
v -0.018750 0.501056 0.506901
v -0.354412 0.502025 0.346677
v -0.488874 0.502509 -0.016804
v -0.319911 0.502224 -0.370620
v 0.030041 0.501337 -0.507510
v 0.374500 0.500367 -0.347287
v 0.508963 0.499884 0.016194
v 0.340000 0.500169 0.370010
vn -0.0025 -0.9998 0.0202
vn -0.7605 0.6232 -0.1824
vn -0.6651 0.7453 -0.0463
vn -0.5439 -0.8391 -0.0029
vn -0.6812 -0.7159 -0.1529
vn 0.7643 0.6246 0.1605
vn 0.6701 0.7421 0.0170
vn 0.5439 -0.8378 0.0474
vn 0.6770 -0.7141 0.1779
vn -0.4511 0.6093 -0.6521
vn -0.4462 0.7365 -0.5084
vn -0.3767 -0.8412 -0.3878
vn -0.4029 -0.7127 -0.5742
vn 0.4474 0.6208 0.6437
vn 0.4534 0.7477 0.4851
vn 0.3564 -0.8360 0.4172
vn 0.3861 -0.7018 0.5986
vn -0.6539 0.6301 0.4187
vn -0.4882 0.7495 0.4471
vn -0.3919 -0.8349 0.3865
vn -0.5911 -0.7102 0.3824
vn -0.1215 0.6249 0.7712
vn -0.0177 0.7472 0.6643
vn -0.0186 -0.8313 0.5555
vn -0.1222 -0.6999 0.7037
vn 0.6522 0.6198 -0.4364
vn 0.4808 0.7394 -0.4713
vn 0.3988 -0.8442 -0.3582
vn 0.5947 -0.7189 -0.3599
vn 0.1245 0.6090 -0.7834
vn 0.0216 0.7339 -0.6789
vn 0.0146 -0.8432 -0.5374
vn 0.1225 -0.7141 -0.6892
vn 0.4933 0.6087 -0.6215
vn 0.4372 -0.7124 -0.5490
vn -0.0740 0.6085 -0.7901
vn -0.0817 -0.7137 -0.6956
vn -0.6136 0.6206 -0.4883
vn -0.5640 -0.7189 -0.4063
vn -0.7736 0.6264 0.0959
vn -0.6907 -0.7130 0.1206
vn -0.4967 0.6222 0.6052
vn -0.4362 -0.7001 0.5654
vn 0.0763 0.6241 0.7776
vn 0.0766 -0.6999 0.7101
vn 0.6202 0.6288 0.4691
vn 0.5564 -0.7121 0.4282
vn -0.0989 -0.9947 -0.0286
vn -0.1256 -0.9919 0.0211
vn 0.6921 -0.7169 -0.0841
vn -0.1191 -0.9922 -0.0359
vn 0.1213 -0.9921 0.0328
vn 0.0974 -0.9951 -0.0179
vn 0.1184 -0.9927 -0.0237
vn -0.1020 -0.9931 0.0576
vn -0.1230 -0.9904 0.0635
vn 0.0746 -0.9907 0.1135
vn 0.0944 -0.9933 0.0672
vn 0.1151 -0.9906 0.0736
vn -0.0936 -0.9929 -0.0738
vn 0.0945 -0.9933 -0.0663
vn 0.0401 -0.9960 -0.0801
vn 0.0481 -0.9946 -0.0915
vn 0.0007 -0.9935 -0.1135
vn -0.0403 -0.9957 -0.0832
vn -0.0463 -0.9944 -0.0952
vn -0.0844 -0.9909 0.1051
vn -0.0449 -0.9918 0.1196
vn -0.0529 -0.9900 0.1309
vn -0.0065 -0.9903 0.1386
vn 0.0353 -0.9918 0.1229
vn 0.0412 -0.9900 0.1348
vn -0.6015 0.7412 -0.2980
vn 0.1191 0.9922 0.0359
vn 0.7752 0.6229 -0.1053
vn -0.5230 0.8513 -0.0413
vn 0.3788 0.8463 -0.3745
vn 0.2698 0.7373 -0.6194
vn 0.6090 0.7454 0.2711
vn 0.5261 0.8504 0.0013
vn 0.2368 0.7500 0.6176
vn -0.0412 0.9900 -0.1348
vn 0.3658 0.8519 0.3748
vn -0.0481 0.9946 0.0915
vn -0.3865 0.8549 0.3460
vn -0.2720 0.7500 0.6029
vn 0.6254 0.7398 -0.2481
vn -0.1184 0.9927 0.0237
vn -0.0140 0.8537 0.5206
vn 0.0529 0.9900 -0.1309
vn -0.1151 0.9906 -0.0736
vn 0.0183 0.8425 -0.5384
vn -0.2285 0.7381 -0.6348
vn -0.6283 0.7459 0.2208
vn 0.0463 0.9944 0.0952
vn -0.3514 0.8447 -0.4038
vn 0.1230 0.9904 -0.0635
vn -0.0297 -0.0000 0.9996
vn 0.6786 -0.0000 0.7345
vn -0.9989 -0.0000 -0.0467
vn -0.7292 -0.0000 0.6843
vn 0.9993 -0.0000 0.0367
vn 0.7248 -0.0000 -0.6889
vn -0.6731 -0.0000 -0.7395
vn 0.0306 -0.0000 -0.9995
vn 0.7496 0.5852 0.3093
vn 0.7740 0.5783 -0.2581
vn 0.3665 0.5799 -0.7276
vn -0.3113 0.5815 -0.7517
vn -0.7511 0.5806 -0.3144
vn -0.7741 0.5854 0.2411
vn -0.3664 0.5957 0.7148
vn 0.3161 0.5960 0.7382
vn 0.6683 -0.6824 0.2960
vn 0.6949 -0.6861 -0.2154
vn 0.3313 -0.6878 -0.6459
vn -0.2855 -0.6889 -0.6663
vn -0.6767 -0.6866 -0.2659
vn -0.6951 -0.6799 0.2337
vn -0.3310 -0.6738 0.6607
vn 0.2817 -0.6759 0.6811
vn -0.0394 0.4830 0.8747
vn -0.0231 0.6833 0.7297
vn -0.5546 0.6685 0.4956
vn -0.6524 0.4677 0.5963
vn -0.7515 0.6588 -0.0338
vn -0.8875 0.4589 -0.0417
vn -0.5112 0.6752 -0.5317
vn -0.5991 0.4707 -0.6477
vn 0.0199 0.6992 -0.7147
vn 0.0228 0.4920 -0.8703
vn 0.5363 0.6886 -0.4881
vn 0.6331 0.4986 -0.5921
vn 0.7390 0.6729 0.0332
vn 0.8683 0.4945 0.0386
vn 0.5090 0.6725 0.5373
vn 0.5885 0.4880 0.6446
vn 0.6753 0.0930 0.7316
vn -0.0415 0.0716 0.9966
vn 0.9936 0.1036 0.0447
vn 0.7322 0.0953 -0.6744
vn 0.0314 0.0736 -0.9968
vn -0.6809 0.0514 -0.7305
vn -0.9981 0.0432 -0.0448
vn -0.7384 0.0508 0.6725
vn 0.4476 -0.7596 0.4719
vn -0.0175 -0.7750 0.6318
vn -0.4734 -0.7700 0.4278
vn -0.6451 -0.7635 -0.0302
vn -0.4372 -0.7701 -0.4646
vn 0.0252 -0.7744 -0.6323
vn 0.4845 -0.7586 -0.4356
vn 0.6615 -0.7494 0.0304
vn -0.0379 -0.2682 0.9626
vn -0.7048 -0.2778 0.6527
vn -0.9606 -0.2744 -0.0441
vn -0.6496 -0.2741 -0.7091
vn 0.0311 -0.2666 -0.9633
vn 0.7110 -0.2381 -0.6617
vn 0.9744 -0.2204 0.0443
vn 0.6554 -0.2367 0.7173
vt 0.296748 0.785341
vt 0.252101 0.831302
vt 0.359889 0.785153
vt 0.404537 0.830847
vt 0.404537 0.895657
vt 0.359889 0.941618
vt 0.296748 0.941806
vt 0.252101 0.896112
vt 0.273821 0.918341
vt 0.328319 0.941712
vt 0.382213 0.918637
vt 0.404537 0.863252
vt 0.382213 0.808000
vt 0.328319 0.785247
vt 0.274425 0.808322
vt 0.252101 0.863707
vt 0.445212 0.904576
vt 0.162296 0.283161
vt 0.482990 0.902526
vt 0.139010 0.223465
vt 0.444833 0.844652
vt 0.482722 0.844443
vt 0.220404 0.307864
vt 0.424275 0.904570
vt 0.482990 0.785526
vt 0.279297 0.283104
vt 0.423626 0.845195
vt 0.304474 0.223384
vt 0.424275 0.785192
vt 0.444170 0.902153
vt 0.281189 0.163688
vt 0.443351 0.844042
vt 0.223080 0.138986
vt 0.445212 0.785186
vt 0.444170 0.785153
vt 0.164188 0.163746
vt 0.927784 0.295822
vt 0.426794 0.223298
vt 0.889735 0.333594
vt 0.017390 0.223499
vt 0.095209 0.827945
vt 0.000433 0.859133
vt 0.079686 0.075737
vt 0.095872 0.785686
vt 0.057696 0.829001
vt 0.369178 0.075595
vt 0.037944 0.829095
vt 0.483963 0.859579
vt 0.364497 0.371061
vt 0.979746 0.843155
vt 0.218781 0.432325
vt 0.225402 0.014473
vt 0.981047 0.127079
vt 0.133371 0.819849
vt 0.057032 0.785686
vt 0.075005 0.371203
vt 0.443772 0.813802
vt 0.192838 0.151700
vt 0.443761 0.873098
vt 0.252134 0.151337
vt 0.423950 0.815193
vt 0.292831 0.193536
vt 0.423950 0.874883
vt 0.291885 0.253244
vt 0.482856 0.814985
vt 0.249850 0.295484
vt 0.191350 0.295512
vt 0.482856 0.873485
vt 0.150653 0.253313
vt 0.445022 0.874614
vt 0.445023 0.814919
vt 0.151599 0.193606
vt 0.726340 0.283161
vt 0.463638 0.904543
vt 0.464569 0.902153
vt 0.134852 0.902745
vt 0.139086 0.785686
vt 0.749626 0.223466
vt 0.463259 0.844619
vt 0.138437 0.845689
vt 0.668232 0.307864
vt 0.464301 0.844070
vt 0.134034 0.844635
vt 0.609340 0.283104
vt 0.405849 0.904531
vt 0.464569 0.785153
vt 0.134852 0.785745
vt 0.145975 0.785686
vt 0.584162 0.223385
vt 0.405200 0.845156
vt 0.145596 0.845152
vt 0.607448 0.163689
vt 0.405849 0.785153
vt 0.425756 0.902526
vt 0.146907 0.902686
vt 0.145975 0.905076
vt 0.665556 0.138986
vt 0.424938 0.844416
vt 0.146638 0.844603
vt 0.724448 0.163747
vt 0.463638 0.785153
vt 0.425756 0.785526
vt 0.139086 0.905064
vt 0.146906 0.785686
vt 0.909358 0.295807
vt 0.461853 0.223298
vt 0.908161 0.333550
vt 0.871257 0.223499
vt 0.076785 0.827691
vt 0.018856 0.859360
vt 0.808960 0.075737
vt 0.114291 0.786154
vt 0.076121 0.829098
vt 0.519468 0.075595
vt 0.019519 0.829260
vt 0.502362 0.858759
vt 0.524150 0.371061
vt 0.998160 0.842783
vt 0.669865 0.432325
vt 0.663245 0.014473
vt 0.999468 0.127451
vt 0.114954 0.819931
vt 0.038608 0.785871
vt 0.813642 0.371203
vt 0.695798 0.151701
vt 0.425358 0.814175
vt 0.146776 0.814348
vt 0.636502 0.151338
vt 0.425347 0.873471
vt 0.146772 0.873645
vt 0.595805 0.193537
vt 0.405525 0.815154
vt 0.145785 0.875114
vt 0.596751 0.253244
vt 0.405525 0.874844
vt 0.145785 0.815419
vt 0.638786 0.295484
vt 0.464435 0.814611
vt 0.134443 0.815190
vt 0.697286 0.295513
vt 0.464435 0.873112
vt 0.134443 0.873690
vt 0.737983 0.253314
vt 0.463448 0.874581
vt 0.138761 0.815687
vt 0.737037 0.193606
vt 0.463448 0.814886
vt 0.138761 0.875377
vt 0.137773 0.902686
vt 0.142009 0.785692
vt 0.141360 0.845695
vt 0.136955 0.844575
vt 0.137773 0.785686
vt 0.143052 0.785691
vt 0.142673 0.845157
vt 0.149829 0.902745
vt 0.143052 0.905081
vt 0.149560 0.844662
vt 0.142009 0.905071
vt 0.149829 0.785745
vt 0.095209 0.785940
vt 0.098674 0.033475
vt 0.981247 0.000332
vt 0.188720 0.001457
vt 0.980904 0.090410
vt 0.145784 0.034092
vt 0.135316 0.001243
vt 0.980899 0.037006
vt 0.261355 0.001108
vt 0.980903 0.163046
vt 0.057696 0.785686
vt 0.350300 0.032466
vt 0.981247 0.251959
vt 0.302552 0.032460
vt 0.314203 0.000332
vt 0.980897 0.215894
vt 0.095872 0.819997
vt 0.403506 0.091930
vt 0.927833 0.427416
vt 0.443992 0.177462
vt 0.927406 0.341485
vt 0.402088 0.147678
vt 0.440872 0.129120
vt 0.927339 0.389856
vt 0.442358 0.268544
vt 0.927650 0.250424
vt 0.400201 0.354252
vt 0.483654 0.823873
vt 0.398933 0.298577
vt 0.438087 0.317125
vt 0.927833 0.201888
vt 0.483963 0.785972
vt 0.037944 0.785686
vt 0.344012 0.414675
vt 0.980337 0.717926
vt 0.253541 0.445330
vt 0.979318 0.808394
vt 0.296306 0.413706
vt 0.306841 0.446378
vt 0.979286 0.755094
vt 0.183075 0.445594
vt 0.979306 0.878860
vt 0.057032 0.829010
vt 0.093983 0.414273
vt 0.980337 0.967955
vt 0.141603 0.414218
vt 0.130183 0.446378
vt 0.979277 0.931752
vt 0.133371 0.785686
vt 0.040847 0.354871
vt 0.889824 0.201917
vt 0.000332 0.269207
vt 0.889092 0.288123
vt 0.042262 0.298961
vt 0.003502 0.317599
vt 0.888978 0.239692
vt 0.001925 0.178185
vt 0.889508 0.379113
vt 0.044221 0.092438
vt 0.000332 0.823651
vt 0.045431 0.148297
vt 0.006296 0.129578
vt 0.000433 0.785686
vt 0.889824 0.427656
vt 0.699927 0.001457
vt 0.999325 0.090782
vt 0.076785 0.785686
vt 0.789973 0.033475
vt 0.999668 0.000704
vt 0.742859 0.034092
vt 0.753331 0.001243
vt 0.999320 0.037379
vt 0.076121 0.785783
vt 0.538347 0.032466
vt 0.999668 0.252331
vt 0.627292 0.001108
vt 0.999324 0.163418
vt 0.586092 0.032460
vt 0.574444 0.000332
vt 0.999318 0.216267
vt 0.444655 0.177462
vt 0.908980 0.341469
vt 0.114291 0.820466
vt 0.485140 0.091930
vt 0.909407 0.427401
vt 0.486555 0.147678
vt 0.447774 0.129120
vt 0.908913 0.389840
vt 0.488446 0.354252
vt 0.502052 0.823054
vt 0.446289 0.268544
vt 0.909224 0.250408
vt 0.489710 0.298577
vt 0.450560 0.317125
vt 0.909407 0.201872
vt 0.502362 0.785153
vt 0.635105 0.445330
vt 0.997731 0.808021
vt 0.019519 0.785850
vt 0.544634 0.414675
vt 0.998750 0.717554
vt 0.592337 0.413706
vt 0.581806 0.446378
vt 0.997699 0.754722
vt 0.038608 0.829195
vt 0.794663 0.414273
vt 0.998750 0.967583
vt 0.705572 0.445594
vt 0.997719 0.878488
vt 0.747040 0.414218
vt 0.758464 0.446378
vt 0.997690 0.931380
vt 0.888315 0.269207
vt 0.907517 0.288078
vt 0.114954 0.785767
vt 0.847799 0.354871
vt 0.908249 0.201872
vt 0.846381 0.298961
vt 0.885144 0.317599
vt 0.907404 0.239648
vt 0.844425 0.092438
vt 0.018755 0.823878
vt 0.886722 0.178185
vt 0.907933 0.379069
vt 0.843212 0.148298
vt 0.882351 0.129578
vt 0.018856 0.785912
vt 0.908249 0.427612
vt 0.747417 0.787556
vt 0.619387 0.785635
vt 0.630031 0.515935
vt 0.272840 0.514412
vt 0.729304 0.516189
vt 0.815133 0.717847
vt 0.710259 0.785866
vt 0.289193 0.784489
vt 0.377288 0.512904
vt 0.910898 0.717554
vt 0.377516 0.783214
vt 0.931776 0.000332
vt 0.765194 0.447232
vt 0.482721 0.514412
vt 0.978613 0.786848
vt 0.466671 0.784489
vt 0.784407 0.716890
vt 0.888978 0.100111
vt 0.863837 0.447042
vt 0.978613 0.885138
vt 0.874747 0.716711
vt 0.932996 0.201209
vt 0.021313 0.515481
vt 0.966036 0.447268
vt 0.910897 0.954847
vt 0.965497 0.716890
vt 0.037215 0.785022
vt 0.125672 0.515043
vt 0.815133 0.955140
vt 0.125462 0.784651
vt 0.528477 0.516219
vt 0.231195 0.515481
vt 0.747417 0.885846
vt 0.214693 0.785022
vt 0.529184 0.785866
vt 0.690297 0.447726
vt 0.319179 0.447042
vt 0.630294 0.447042
vt 0.377294 0.447408
vt 0.436155 0.449427
vt 0.980234 0.038432
vt 0.956005 0.098542
vt 0.980234 0.157862
vt 0.067955 0.449448
vt 0.126021 0.447985
vt 0.184931 0.447042
vt 0.570918 0.447656
vt 0.623111 0.699321
vt 0.733110 0.699602
vt 0.262459 0.697654
vt 0.377332 0.695995
vt 0.493288 0.697654
vt 0.761186 0.630660
vt 0.870491 0.630448
vt 0.983402 0.630696
vt 0.010511 0.698782
vt 0.125287 0.698299
vt 0.241342 0.698782
vt 0.510911 0.699633
vt 0.626373 0.607491
vt 0.746753 0.607799
vt 0.252101 0.605500
vt 0.377064 0.603695
vt 0.503205 0.605499
vt 0.747417 0.538871
vt 0.867043 0.538639
vt 0.990321 0.538907
vt 0.000332 0.606976
vt 0.125189 0.606451
vt 0.251438 0.606976
vt 0.503868 0.607829
s 1
usemtl 
f 15/15/1 1/1/1 14/14/1 3/3/1 13/13/1 4/4/1 12/12/1 5/5/1 11/11/1 6/6/1 10/10/1 7/7/1 9/9/1 8/8/1 16/16/1 2/2/1
usemtl 
f 93/202/2 30/50/3 54/118/4 126/269/5
f 77/170/6 31/53/7 55/121/8 110/237/9
f 89/193/10 29/47/11 53/115/12 122/259/13
f 73/161/14 27/41/15 51/109/16 106/227/17
f 97/209/18 32/54/19 56/122/20 130/275/21
f 101/218/22 26/39/23 50/107/24 134/284/25
f 81/177/26 28/44/27 52/112/28 114/243/29
f 85/186/30 25/37/31 49/105/32 118/252/33
f 28/45/27 78/171/34 109/233/35 52/113/28
f 25/37/31 82/181/36 113/242/37 49/105/32
f 29/48/11 86/188/38 117/250/39 53/116/12
f 30/50/3 90/197/40 121/258/41 54/118/4
f 32/55/19 94/203/42 125/265/43 56/123/20
f 26/39/23 98/213/44 129/274/45 50/107/24
f 27/42/15 102/220/46 133/282/47 51/110/16
f 57/125/48 47/97/49 55/120/8 105/225/50 107/230/51
f 43/81/52 62/140/53 127/270/54 126/268/5 54/119/4
f 47/97/49 58/128/55 111/238/56 110/236/9 55/120/8
f 44/84/57 61/137/58 123/262/59 122/260/13 53/117/12
f 48/100/60 57/125/48 107/230/51 106/228/17 51/111/16
f 41/73/61 63/143/62 131/278/63 130/276/21 56/124/20
f 42/78/64 64/146/65 135/285/66 134/283/25 50/108/24
f 46/92/67 59/131/68 115/246/69 114/244/29 52/114/28
f 45/89/70 60/134/71 119/253/72 118/251/33 49/106/32
f 58/128/55 46/92/67 52/114/28 109/234/35 111/238/56
f 59/131/68 45/89/70 49/106/32 113/241/37 115/246/69
f 60/134/71 44/84/57 53/117/12 117/249/39 119/253/72
f 61/137/58 43/81/52 54/119/4 121/257/41 123/262/59
f 62/140/53 41/73/61 56/124/20 125/266/43 127/270/54
f 63/143/62 42/78/64 50/108/24 129/273/45 131/278/63
f 64/146/65 48/100/60 51/111/16 133/281/47 135/285/66
f 33/58/73 75/166/74 74/164/75 31/52/7 23/33/76
f 17/17/77 39/70/78 63/144/62 41/74/61
f 37/65/79 19/22/80 43/82/52 61/138/58
f 36/64/81 87/189/82 86/187/38 29/49/11 20/26/83
f 17/18/77 32/56/19 97/210/18 99/214/84 39/69/78
f 36/63/81 20/24/83 44/85/57 60/135/71
f 22/29/85 35/61/86 59/132/68 46/93/67
f 38/67/87 95/206/88 94/204/42 32/56/19 17/18/77
f 35/61/86 21/27/89 45/90/70 59/132/68
f 22/31/85 28/46/27 81/178/26 83/182/90 35/62/86
f 37/66/79 91/198/91 90/196/40 30/51/3 19/23/80
f 18/21/92 40/71/93 64/147/65 42/79/64
f 34/59/94 22/30/85 46/94/67 58/129/55
f 39/69/78 99/214/84 98/212/44 26/40/23 18/20/92
f 18/20/92 26/40/23 101/217/22 103/221/95 40/72/93
f 33/57/73 23/32/76 47/98/49 57/126/48
f 21/27/89 36/63/81 60/135/71 45/90/70
f 40/71/93 24/34/96 48/101/60 64/147/65
f 21/28/89 25/38/31 85/185/30 87/189/82 36/64/81
f 34/60/94 79/174/97 78/172/34 28/46/27 22/31/85
f 20/25/83 37/65/79 61/138/58 44/86/57
f 40/72/93 103/221/95 102/219/46 27/43/15 24/36/96
f 20/26/83 29/49/11 89/194/10 91/198/91 37/66/79
f 24/35/96 33/57/73 57/126/48 48/102/60
f 35/62/86 83/182/90 82/180/36 25/38/31 21/28/89
f 24/36/96 27/43/15 73/162/14 75/166/74 33/58/73
f 19/22/80 38/68/87 62/141/53 43/82/52
f 19/23/80 30/51/3 93/201/2 95/206/88 38/67/87
f 39/70/78 18/21/92 42/79/64 63/144/62
f 23/32/76 34/59/94 58/129/55 47/98/49
f 38/68/87 17/19/77 41/75/61 62/141/53
f 23/33/76 31/52/7 77/169/6 79/174/97 34/60/94
f 64/148/65 42/80/64 66/151/98 72/159/99 48/103/60
f 62/142/53 43/83/52 67/152/100 65/149/101 41/76/61
f 63/145/62 41/77/61 65/150/101 66/151/98 42/80/64
f 58/130/55 47/99/49 71/158/102 70/156/103 46/95/67
f 61/139/58 44/87/57 68/153/104 67/152/100 43/83/52
f 59/133/68 46/96/67 70/157/103 69/155/105 45/91/70
f 57/127/48 48/104/60 72/160/99 71/158/102 47/99/49
f 60/136/71 45/91/70 69/155/105 68/154/104 44/88/57
f 73/162/14 76/167/106 75/166/74
f 76/167/106 74/164/75 75/166/74
f 77/169/6 80/175/107 79/174/97
f 80/175/107 78/172/34 79/174/97
f 81/178/26 84/183/108 83/182/90
f 84/183/108 82/180/36 83/182/90
f 85/185/30 88/190/109 87/189/82
f 88/190/109 86/187/38 87/189/82
f 89/194/10 92/199/110 91/198/91
f 92/199/110 90/196/40 91/198/91
f 93/201/2 96/207/111 95/206/88
f 96/207/111 94/204/42 95/206/88
f 97/210/18 100/215/112 99/214/84
f 100/215/112 98/212/44 99/214/84
f 101/217/22 104/222/113 103/221/95
f 104/222/113 102/219/46 103/221/95
f 105/225/50 108/231/114 107/230/51
f 108/231/114 106/228/17 107/230/51
f 109/234/35 112/239/115 111/238/56
f 112/239/115 110/236/9 111/238/56
f 113/241/37 116/247/116 115/246/69
f 116/247/116 114/244/29 115/246/69
f 117/249/39 120/254/117 119/253/72
f 120/254/117 118/251/33 119/253/72
f 121/257/41 124/263/118 123/262/59
f 124/263/118 122/260/13 123/262/59
f 125/266/43 128/271/119 127/270/54
f 128/271/119 126/268/5 127/270/54
f 129/273/45 132/279/120 131/278/63
f 132/279/120 130/276/21 131/278/63
f 133/281/47 136/286/121 135/285/66
f 136/286/121 134/283/25 135/285/66
f 73/163/14 106/229/17 108/232/114 76/168/106
f 76/168/106 108/232/114 105/226/50 74/165/75
f 85/186/30 118/252/33 120/255/117 88/191/109
f 88/192/109 120/256/117 117/250/39 86/188/38
f 129/274/45 98/213/44 100/216/112 132/280/120
f 132/280/120 100/216/112 97/211/18 130/277/21
f 93/202/2 126/269/5 128/272/119 96/208/111
f 96/208/111 128/272/119 125/267/43 94/205/42
f 113/242/37 82/181/36 84/184/108 116/248/116
f 116/248/116 84/184/108 81/179/26 114/245/29
f 89/195/10 122/261/13 124/264/118 92/200/110
f 92/200/110 124/264/118 121/258/41 90/197/40
f 133/282/47 102/220/46 104/223/113 136/287/121
f 136/288/121 104/224/113 101/218/22 134/284/25
f 77/170/6 110/237/9 112/240/115 80/176/107
f 80/176/107 112/240/115 109/235/35 78/173/34
f 31/53/7 74/165/75 105/226/50 55/121/8
usemtl 
f 138/291/122 154/326/123 153/324/124 139/293/125
f 139/292/125 153/325/124 155/327/126 141/297/127
f 141/297/127 155/327/126 156/328/128 143/302/129
f 143/300/129 156/329/128 157/330/130 145/306/131
f 145/306/131 157/330/130 158/331/132 147/310/133
f 147/311/133 158/332/132 159/333/134 149/316/135
f 149/316/135 159/333/134 160/334/136 151/320/137
f 151/319/137 160/335/136 154/326/123 138/291/122
f 176/359/138 151/319/137 138/291/122 169/348/139
f 175/357/140 149/316/135 151/320/137 176/358/138
f 174/356/141 147/311/133 149/316/135 175/357/140
f 173/354/142 145/307/131 147/312/133 174/355/141
f 172/353/143 143/301/129 145/307/131 173/354/142
f 171/351/144 141/297/127 143/302/129 172/352/143
f 170/350/145 139/292/125 141/297/127 171/351/144
f 169/348/139 138/291/122 139/293/125 170/349/145
f 152/321/146 137/289/147 140/294/148 142/298/149 144/303/150 146/308/151 148/313/152 150/317/153
f 137/290/147 161/336/154 162/337/155 140/295/148
f 140/296/148 162/338/155 163/339/156 142/299/149
f 142/299/149 163/339/156 164/340/157 144/304/150
f 144/305/150 164/341/157 165/342/158 146/309/151
f 146/309/151 165/342/158 166/343/159 148/314/152
f 148/315/152 166/344/159 167/345/160 150/318/153
f 150/318/153 167/345/160 168/346/161 152/322/146
f 152/323/146 168/347/161 161/336/154 137/290/147
f 161/336/154 169/348/139 170/349/145 162/337/155
f 162/338/155 170/350/145 171/351/144 163/339/156
f 163/339/156 171/351/144 172/352/143 164/340/157
f 164/341/157 172/353/143 173/354/142 165/342/158
f 165/342/158 173/354/142 174/355/141 166/343/159
f 166/344/159 174/356/141 175/357/140 167/345/160
f 167/345/160 175/357/140 176/358/138 168/346/161
f 168/347/161 176/359/138 169/348/139 161/336/154
